<?xml version="1.0" encoding="UTF-8"?>
<svg width="20px" height="20px" viewBox="0 0 32 32" version="1.1" xmlns="http://www.w3.org/2000/svg" xmlns:xlink="http://www.w3.org/1999/xlink">
    <!-- Generator: Sketch 63.1 (92452) - https://sketch.com -->
    <title>Arrow</title>
    <desc>Created with Sketch.</desc>
    <g id="Arrow" stroke="none" stroke-width="1" fill="none" fill-rule="evenodd">
        <path d="M30.9,16.4 C31,16.2 31,15.9 30.9,15.6 C30.8,15.5 30.8,15.4 30.7,15.3 L22.7,7.3 C22.3,6.9 21.7,6.9 21.3,7.3 C20.9,7.7 20.9,8.3 21.3,8.7 L27.6,15 L2,15 C1.4,15 1,15.4 1,16 C1,16.6 1.4,17 2,17 L27.6,17 L21.3,23.3 C20.9,23.7 20.9,24.3 21.3,24.7 C21.5,24.9 21.8,25 22,25 C22.2,25 22.5,24.9 22.7,24.7 L30.7,16.7 C30.8,16.6 30.9,16.5 30.9,16.4 Z" id="Path" fill="#000000" fill-rule="nonzero"></path>
    </g>
</svg>